<svg xmlns="http://www.w3.org/2000/svg" xmlns:xlink="http://www.w3.org/1999/xlink" width="518" zoomAndPan="magnify" viewBox="0 0 388.5 195.749994" height="261" preserveAspectRatio="xMidYMid meet" version="1.0"><defs><g/><clipPath id="8df82b5d31"><path d="M 195 38 L 214.917969 38 L 214.917969 93 L 195 93 Z M 195 38 " clip-rule="nonzero"/></clipPath><clipPath id="699ca18bcf"><path d="M 195.316406 38 L 214.917969 38 L 214.917969 93 L 195.316406 93 Z M 195.316406 38 " clip-rule="nonzero"/></clipPath><clipPath id="13c3036dea"><path d="M 201.195312 72.238281 L 201.195312 51.714844 C 201.195312 49.902344 201.542969 48.15625 202.234375 46.480469 C 202.929688 44.804688 203.914062 43.324219 205.195312 42.042969 C 206.472656 40.757812 207.949219 39.769531 209.621094 39.078125 C 211.292969 38.382812 213.035156 38.035156 214.84375 38.035156 L 214.84375 72.238281 C 214.84375 73.542969 214.722656 74.832031 214.476562 76.113281 C 214.230469 77.394531 213.867188 78.640625 213.382812 79.851562 C 212.898438 81.0625 212.308594 82.21875 211.605469 83.316406 C 210.902344 84.414062 210.101562 85.4375 209.203125 86.382812 C 208.308594 87.328125 207.328125 88.179688 206.269531 88.9375 C 205.210938 89.695312 204.089844 90.34375 202.90625 90.890625 C 201.726562 91.433594 200.5 91.859375 199.238281 92.171875 C 197.972656 92.480469 196.691406 92.667969 195.390625 92.734375 L 195.390625 79 C 196.199219 78.878906 196.960938 78.617188 197.675781 78.222656 C 198.390625 77.828125 199.011719 77.316406 199.546875 76.699219 C 200.078125 76.078125 200.488281 75.382812 200.769531 74.617188 C 201.054688 73.847656 201.195312 73.054688 201.195312 72.238281 " clip-rule="evenodd"/></clipPath><clipPath id="3cbadc498d"><path d="M 173.667969 51 L 200 51 L 200 93 L 173.667969 93 Z M 173.667969 51 " clip-rule="nonzero"/></clipPath><clipPath id="12b9d7d3c7"><path d="M 173.777344 51.457031 L 199.625 51.457031 L 199.625 93 L 173.777344 93 Z M 173.777344 51.457031 " clip-rule="nonzero"/></clipPath><clipPath id="a28480bd63"><path d="M 193.355469 92.734375 C 192.035156 92.667969 190.730469 92.476562 189.445312 92.15625 C 188.160156 91.839844 186.917969 91.398438 185.71875 90.839844 C 184.519531 90.28125 183.386719 89.609375 182.316406 88.828125 C 181.246094 88.046875 180.261719 87.171875 179.359375 86.199219 C 178.460938 85.226562 177.660156 84.179688 176.964844 83.050781 C 176.265625 81.921875 175.683594 80.738281 175.214844 79.5 C 174.746094 78.257812 174.402344 76.984375 174.179688 75.675781 C 173.957031 74.371094 173.863281 73.050781 173.894531 71.726562 C 173.929688 70.398438 174.089844 69.089844 174.375 67.792969 C 174.660156 66.5 175.070312 65.246094 175.597656 64.027344 C 176.128906 62.8125 176.769531 61.660156 177.519531 60.570312 C 178.273438 59.476562 179.125 58.46875 180.070312 57.542969 C 181.019531 56.617188 182.046875 55.789062 183.152344 55.066406 C 184.261719 54.339844 185.425781 53.726562 186.652344 53.226562 C 187.878906 52.726562 189.140625 52.351562 190.441406 52.097656 C 191.738281 51.839844 193.050781 51.714844 194.371094 51.714844 L 199.160156 51.714844 L 199.160156 65.394531 L 194.371094 65.394531 C 193.511719 65.398438 192.683594 65.554688 191.882812 65.871094 C 191.082031 66.1875 190.367188 66.636719 189.738281 67.226562 C 189.105469 67.8125 188.605469 68.492188 188.230469 69.269531 C 187.859375 70.046875 187.640625 70.867188 187.574219 71.726562 C 187.511719 72.585938 187.605469 73.425781 187.859375 74.25 C 188.113281 75.074219 188.507812 75.824219 189.042969 76.496094 C 189.578125 77.171875 190.21875 77.726562 190.964844 78.15625 C 191.707031 78.589844 192.503906 78.871094 193.355469 79 Z M 193.355469 92.734375 " clip-rule="evenodd"/></clipPath></defs><g fill="#ffffff" fill-opacity="1"><g transform="translate(121.299242, 147.075651)"><g><path d="M 18.953125 0 L 18.953125 -2.578125 C 16.859375 -0.859375 14.484375 0 11.828125 0 C 8.734375 0.03125 6.078125 -1.046875 3.859375 -3.234375 C 1.640625 -5.421875 0.515625 -8.078125 0.484375 -11.203125 C 0.453125 -14.296875 1.53125 -16.953125 3.71875 -19.171875 C 5.90625 -21.390625 8.5625 -22.515625 11.6875 -22.546875 C 14.40625 -22.546875 16.8125 -21.6875 18.90625 -19.96875 L 18.90625 -30.5625 L 25.046875 -30.5625 L 25.09375 0 Z M 15.71875 -7.359375 C 16.800781 -8.429688 17.34375 -9.742188 17.34375 -11.296875 C 17.28125 -12.867188 16.722656 -14.179688 15.671875 -15.234375 C 14.566406 -16.285156 13.253906 -16.8125 11.734375 -16.8125 C 10.179688 -16.8125 8.867188 -16.269531 7.796875 -15.1875 C 6.710938 -13.988281 6.1875 -12.675781 6.21875 -11.25 C 6.21875 -9.707031 6.757812 -8.394531 7.84375 -7.3125 C 8.914062 -6.226562 10.226562 -5.6875 11.78125 -5.6875 C 13.351562 -5.75 14.664062 -6.304688 15.71875 -7.359375 Z M 15.71875 -7.359375 "/></g></g></g><g fill="#ffffff" fill-opacity="1"><g transform="translate(147.698699, 147.075651)"><g><path d="M 1.3125 -22.640625 L 7 -22.640625 L 7 -11.25 C 7 -10.8125 7.070312 -10.316406 7.21875 -9.765625 C 7.394531 -9.085938 7.660156 -8.472656 8.015625 -7.921875 C 8.972656 -6.460938 10.34375 -5.734375 12.125 -5.734375 C 14.082031 -5.734375 15.5 -6.476562 16.375 -7.96875 C 16.695312 -8.488281 16.929688 -9.101562 17.078125 -9.8125 C 17.191406 -10.300781 17.25 -10.796875 17.25 -11.296875 L 17.25 -22.640625 L 23.375 -22.640625 L 23.375 0 L 17.25 0 L 17.25 -2.359375 C 15.820312 -0.785156 13.984375 0 11.734375 0 C 8.847656 0.03125 6.394531 -1.003906 4.375 -3.109375 C 2.332031 -5.179688 1.3125 -7.75 1.3125 -10.8125 Z M 1.3125 -22.640625 "/></g></g></g><g fill="#ffffff" fill-opacity="1"><g transform="translate(172.390736, 147.075651)"><g><path d="M 7.4375 -19.171875 C 7.9375 -20.578125 8.769531 -21.554688 9.9375 -22.109375 C 11.070312 -22.660156 12.78125 -22.9375 15.0625 -22.9375 L 15.0625 -16.6875 C 12.84375 -16.6875 10.988281 -15.925781 9.5 -14.40625 C 8.125 -13.0625 7.4375 -11.585938 7.4375 -9.984375 L 7.4375 0 L 1.3125 0 L 1.3125 -22.546875 L 7.4375 -22.546875 Z M 7.4375 -19.171875 "/></g></g></g><g fill="#ffffff" fill-opacity="1"><g transform="translate(188.107834, 147.075651)"><g><path d="M 1.3125 -22.640625 L 7 -22.640625 L 7 -11.25 C 7 -10.8125 7.070312 -10.316406 7.21875 -9.765625 C 7.394531 -9.085938 7.660156 -8.472656 8.015625 -7.921875 C 8.972656 -6.460938 10.34375 -5.734375 12.125 -5.734375 C 14.082031 -5.734375 15.5 -6.476562 16.375 -7.96875 C 16.695312 -8.488281 16.929688 -9.101562 17.078125 -9.8125 C 17.191406 -10.300781 17.25 -10.796875 17.25 -11.296875 L 17.25 -22.640625 L 23.375 -22.640625 L 23.375 0 L 17.25 0 L 17.25 -2.359375 C 15.820312 -0.785156 13.984375 0 11.734375 0 C 8.847656 0.03125 6.394531 -1.003906 4.375 -3.109375 C 2.332031 -5.179688 1.3125 -7.75 1.3125 -10.8125 Z M 1.3125 -22.640625 "/></g></g></g><g fill="#ffffff" fill-opacity="1"><g transform="translate(212.799871, 147.075651)"><g><path d="M 10.421875 0 C 8.898438 0 7.570312 -0.234375 6.4375 -0.703125 C 5.53125 -1.023438 4.597656 -1.625 3.640625 -2.5 C 1.972656 -4.039062 1.210938 -5.992188 1.359375 -8.359375 L 1.359375 -8.84375 L 6.265625 -8.75 L 6.65625 -8.75 L 6.65625 -8.40625 C 6.6875 -7.675781 6.847656 -7.078125 7.140625 -6.609375 C 7.628906 -5.765625 8.722656 -5.34375 10.421875 -5.34375 C 11.816406 -5.34375 12.820312 -5.503906 13.4375 -5.828125 C 13.757812 -5.972656 13.976562 -6.160156 14.09375 -6.390625 C 14.15625 -6.472656 14.1875 -6.5625 14.1875 -6.65625 L 14.234375 -6.875 C 14.234375 -7.488281 13.75 -7.984375 12.78125 -8.359375 C 12.40625 -8.503906 11.96875 -8.625 11.46875 -8.71875 C 11.09375 -8.800781 10.671875 -8.875 10.203125 -8.9375 C 8.453125 -9.101562 6.992188 -9.453125 5.828125 -9.984375 C 4.660156 -10.453125 3.695312 -11.09375 2.9375 -11.90625 C 1.882812 -13.101562 1.359375 -14.476562 1.359375 -16.03125 C 1.359375 -16.988281 1.53125 -17.875 1.875 -18.6875 C 2.144531 -19.332031 2.5 -19.90625 2.9375 -20.40625 C 4.507812 -22.207031 7.03125 -23.109375 10.5 -23.109375 C 12.570312 -23.109375 14.328125 -22.703125 15.765625 -21.890625 C 16.867188 -21.273438 17.757812 -20.441406 18.4375 -19.390625 C 18.957031 -18.609375 19.320312 -17.691406 19.53125 -16.640625 C 19.582031 -16.285156 19.625 -15.945312 19.65625 -15.625 L 19.65625 -14.703125 L 14.359375 -14.703125 L 14.359375 -15.375 C 14.328125 -15.488281 14.3125 -15.601562 14.3125 -15.71875 C 14.226562 -16.039062 14.113281 -16.300781 13.96875 -16.5 C 13.320312 -17.375 12.164062 -17.8125 10.5 -17.8125 C 8.050781 -17.8125 6.828125 -17.300781 6.828125 -16.28125 C 6.828125 -15.757812 7.117188 -15.335938 7.703125 -15.015625 C 8.316406 -14.640625 9.351562 -14.363281 10.8125 -14.1875 C 14.164062 -13.832031 16.601562 -12.765625 18.125 -10.984375 C 19.144531 -9.785156 19.65625 -8.414062 19.65625 -6.875 L 19.65625 -6.5625 L 19.609375 -6.171875 C 19.609375 -5.796875 19.566406 -5.445312 19.484375 -5.125 C 19.242188 -4.1875 18.804688 -3.351562 18.171875 -2.625 C 17.441406 -1.75 16.421875 -1.09375 15.109375 -0.65625 C 13.796875 -0.21875 12.234375 0 10.421875 0 Z M 10.421875 0 "/></g></g></g><g fill="#ffffff" fill-opacity="1"><g transform="translate(233.770583, 147.075651)"><g><path d="M 1.3125 -22.640625 L 7 -22.640625 L 7 -11.25 C 7 -10.8125 7.070312 -10.316406 7.21875 -9.765625 C 7.394531 -9.085938 7.660156 -8.472656 8.015625 -7.921875 C 8.972656 -6.460938 10.34375 -5.734375 12.125 -5.734375 C 14.082031 -5.734375 15.5 -6.476562 16.375 -7.96875 C 16.695312 -8.488281 16.929688 -9.101562 17.078125 -9.8125 C 17.191406 -10.300781 17.25 -10.796875 17.25 -11.296875 L 17.25 -22.640625 L 23.375 -22.640625 L 23.375 0 L 17.25 0 L 17.25 -2.359375 C 15.820312 -0.785156 13.984375 0 11.734375 0 C 8.847656 0.03125 6.394531 -1.003906 4.375 -3.109375 C 2.332031 -5.179688 1.3125 -7.75 1.3125 -10.8125 Z M 1.3125 -22.640625 "/></g></g></g><g fill="#fc6220" fill-opacity="1"><g transform="translate(258.454423, 147.075651)"><g><path d="M 7.4375 0 L 1.3125 0 L 1.3125 -6.125 L 7.4375 -6.125 Z M 7.4375 0 "/></g></g></g><g clip-path="url(#8df82b5d31)"><path fill="#ac7f9b" d="M 201.195312 72.238281 L 201.195312 51.714844 C 201.195312 50.816406 201.285156 49.929688 201.460938 49.046875 C 201.632812 48.164062 201.894531 47.308594 202.234375 46.480469 C 202.578125 45.652344 203 44.863281 203.496094 44.117188 C 203.996094 43.367188 204.5625 42.675781 205.195312 42.042969 C 205.828125 41.40625 206.515625 40.839844 207.261719 40.339844 C 208.007812 39.839844 208.792969 39.421875 209.621094 39.078125 C 210.449219 38.734375 211.304688 38.472656 212.183594 38.296875 C 213.0625 38.121094 213.949219 38.035156 214.84375 38.035156 L 214.84375 72.238281 C 214.84375 72.886719 214.8125 73.535156 214.753906 74.183594 C 214.691406 74.832031 214.597656 75.476562 214.476562 76.113281 C 214.351562 76.753906 214.199219 77.386719 214.019531 78.011719 C 213.835938 78.632812 213.625 79.25 213.382812 79.851562 C 213.140625 80.457031 212.871094 81.046875 212.574219 81.628906 C 212.277344 82.207031 211.953125 82.769531 211.605469 83.316406 C 211.253906 83.863281 210.878906 84.394531 210.476562 84.90625 C 210.078125 85.417969 209.652344 85.910156 209.203125 86.382812 C 208.757812 86.851562 208.289062 87.300781 207.796875 87.730469 C 207.308594 88.15625 206.800781 88.558594 206.269531 88.9375 C 205.742188 89.316406 205.199219 89.667969 204.636719 89.992188 C 204.074219 90.320312 203.5 90.617188 202.90625 90.890625 C 202.316406 91.160156 201.714844 91.402344 201.101562 91.617188 C 200.488281 91.832031 199.867188 92.015625 199.238281 92.171875 C 198.605469 92.324219 197.96875 92.449219 197.328125 92.542969 C 196.6875 92.636719 196.039062 92.699219 195.390625 92.734375 L 195.390625 79 C 195.792969 78.941406 196.183594 78.84375 196.566406 78.714844 C 196.953125 78.582031 197.320312 78.417969 197.675781 78.222656 C 198.03125 78.027344 198.363281 77.800781 198.679688 77.542969 C 198.992188 77.289062 199.28125 77.003906 199.546875 76.699219 C 199.808594 76.390625 200.046875 76.0625 200.25 75.710938 C 200.457031 75.363281 200.628906 74.996094 200.769531 74.617188 C 200.910156 74.234375 201.019531 73.84375 201.089844 73.445312 C 201.160156 73.046875 201.195312 72.644531 201.195312 72.238281 " fill-opacity="1" fill-rule="evenodd"/></g><g clip-path="url(#699ca18bcf)"><g clip-path="url(#13c3036dea)"><path fill="#ac7f9b" d="M 184.617188 90.507812 L 196.183594 34.183594 L 225.621094 40.257812 L 214.054688 96.582031 Z M 184.617188 90.507812 " fill-opacity="1" fill-rule="nonzero"/></g></g><g clip-path="url(#3cbadc498d)"><path fill="#fc6220" d="M 193.355469 92.734375 C 192.695312 92.699219 192.039062 92.636719 191.386719 92.539062 C 190.734375 92.445312 190.085938 92.316406 189.445312 92.15625 C 188.804688 92 188.171875 91.808594 187.550781 91.589844 C 186.929688 91.367188 186.316406 91.117188 185.71875 90.839844 C 185.121094 90.558594 184.539062 90.253906 183.96875 89.917969 C 183.402344 89.582031 182.847656 89.21875 182.316406 88.828125 C 181.78125 88.4375 181.269531 88.023438 180.773438 87.585938 C 180.28125 87.148438 179.808594 86.683594 179.359375 86.199219 C 178.910156 85.714844 178.484375 85.210938 178.085938 84.683594 C 177.683594 84.15625 177.3125 83.613281 176.964844 83.050781 C 176.617188 82.488281 176.296875 81.910156 176.003906 81.316406 C 175.710938 80.722656 175.449219 80.117188 175.214844 79.5 C 174.980469 78.878906 174.777344 78.25 174.605469 77.613281 C 174.433594 76.972656 174.289062 76.328125 174.179688 75.675781 C 174.070312 75.023438 173.988281 74.367188 173.941406 73.707031 C 173.894531 73.046875 173.878906 72.386719 173.894531 71.726562 C 173.914062 71.066406 173.960938 70.40625 174.039062 69.75 C 174.121094 69.09375 174.230469 68.441406 174.375 67.792969 C 174.519531 67.148438 174.691406 66.511719 174.894531 65.882812 C 175.101562 65.253906 175.335938 64.636719 175.597656 64.027344 C 175.863281 63.421875 176.15625 62.832031 176.476562 62.253906 C 176.796875 61.675781 177.144531 61.113281 177.519531 60.570312 C 177.898438 60.023438 178.296875 59.5 178.722656 58.992188 C 179.148438 58.488281 179.597656 58.003906 180.070312 57.542969 C 180.542969 57.082031 181.039062 56.644531 181.550781 56.230469 C 182.066406 55.816406 182.601562 55.425781 183.152344 55.066406 C 183.707031 54.703125 184.273438 54.367188 184.859375 54.0625 C 185.445312 53.753906 186.042969 53.476562 186.652344 53.226562 C 187.265625 52.976562 187.886719 52.757812 188.519531 52.570312 C 189.152344 52.378906 189.792969 52.222656 190.441406 52.097656 C 191.085938 51.96875 191.742188 51.875 192.398438 51.808594 C 193.054688 51.746094 193.714844 51.714844 194.371094 51.714844 L 199.160156 51.714844 L 199.160156 65.394531 L 194.371094 65.394531 C 193.945312 65.398438 193.523438 65.4375 193.105469 65.515625 C 192.6875 65.597656 192.277344 65.714844 191.882812 65.871094 C 191.484375 66.027344 191.105469 66.21875 190.746094 66.449219 C 190.386719 66.675781 190.050781 66.933594 189.738281 67.226562 C 189.425781 67.515625 189.140625 67.832031 188.890625 68.175781 C 188.636719 68.519531 188.417969 68.886719 188.230469 69.269531 C 188.046875 69.65625 187.898438 70.054688 187.789062 70.46875 C 187.679688 70.878906 187.609375 71.300781 187.574219 71.726562 C 187.542969 72.152344 187.550781 72.578125 187.601562 73 C 187.648438 73.425781 187.734375 73.84375 187.859375 74.25 C 187.984375 74.660156 188.148438 75.050781 188.347656 75.429688 C 188.546875 75.808594 188.777344 76.164062 189.042969 76.496094 C 189.308594 76.832031 189.601562 77.140625 189.925781 77.417969 C 190.25 77.695312 190.59375 77.941406 190.964844 78.15625 C 191.332031 78.371094 191.71875 78.550781 192.121094 78.691406 C 192.523438 78.832031 192.933594 78.933594 193.355469 79 Z M 193.355469 92.734375 " fill-opacity="1" fill-rule="evenodd"/></g><g clip-path="url(#12b9d7d3c7)"><g clip-path="url(#a28480bd63)"><path fill="#fc6220" d="M 167.3125 91.640625 L 174.574219 47.636719 L 205.75 52.808594 L 198.488281 96.808594 Z M 167.3125 91.640625 " fill-opacity="1" fill-rule="nonzero"/></g></g></svg>