<svg width="55" height="74" viewBox="0 0 55 74" fill="none" xmlns="http://www.w3.org/2000/svg">
<mask id="mask0_420_166" style="mask-type:luminance" maskUnits="userSpaceOnUse" x="28" y="0" width="27" height="74">
<path d="M28.4427 0H55V73.3333H28.4427V0Z" fill="white"/>
</mask>
<g mask="url(#mask0_420_166)">
<path fill-rule="evenodd" clip-rule="evenodd" d="M36.7031 45.651V18.2865C36.7031 17.0885 36.8229 15.9063 37.0573 14.7292C37.2865 13.5521 37.6354 12.4115 38.0885 11.3073C38.5469 10.2031 39.1094 9.15104 39.7708 8.15625C40.4375 7.15625 41.1927 6.23437 42.0365 5.39063C42.8802 4.54167 43.7969 3.78646 44.7917 3.11979C45.7865 2.45313 46.8333 1.89583 47.9375 1.4375C49.0417 0.979167 50.1823 0.630208 51.3542 0.395833C52.526 0.161459 53.7083 0.046875 54.901 0.046875V45.651C54.901 46.5156 54.8594 47.3802 54.7813 48.2448C54.6979 49.1094 54.5729 49.9688 54.4115 50.8177C54.2448 51.6719 54.0417 52.5156 53.8021 53.349C53.5573 54.1771 53.276 55 52.9531 55.8021C52.6302 56.6094 52.2708 57.3958 51.875 58.1719C51.4792 58.9427 51.0469 59.6927 50.5833 60.4219C50.1146 61.151 49.6146 61.8594 49.0781 62.5417C48.5469 63.224 47.9792 63.8802 47.3802 64.5104C46.7865 65.1354 46.1615 65.7344 45.5052 66.3073C44.8542 66.875 44.1771 67.4115 43.4688 67.9167C42.7656 68.4219 42.0417 68.8906 41.2917 69.3229C40.5417 69.7604 39.776 70.1563 38.9844 70.5208C38.1979 70.8802 37.3958 71.2031 36.5781 71.4896C35.7604 71.776 34.9323 72.0208 34.0938 72.2292C33.25 72.4323 32.401 72.599 31.5469 72.724C30.6927 72.849 29.8281 72.9323 28.9635 72.9792V54.6667C29.5 54.5885 30.0208 54.4583 30.5313 54.2865C31.0469 54.1094 31.5365 53.8906 32.0104 53.6302C32.4844 53.3698 32.9271 53.0677 33.349 52.724C33.7656 52.3854 34.151 52.0052 34.5052 51.599C34.8542 51.1875 35.1719 50.75 35.4427 50.2813C35.7188 49.8177 35.9479 49.3281 36.1354 48.8229C36.3229 48.3125 36.4688 47.7917 36.5625 47.2604C36.6563 46.7292 36.7031 46.1927 36.7031 45.651Z" fill="#AC7F9B"/>
</g>
<mask id="mask1_420_166" style="mask-type:luminance" maskUnits="userSpaceOnUse" x="28" y="0" width="27" height="74">
<path d="M28.8646 0H55V73.3333H28.8646V0Z" fill="white"/>
</mask>
<g mask="url(#mask1_420_166)">
<mask id="mask2_420_166" style="mask-type:luminance" maskUnits="userSpaceOnUse" x="28" y="0" width="27" height="73">
<path fill-rule="evenodd" clip-rule="evenodd" d="M36.7031 45.651V18.2865C36.7031 15.8698 37.1667 13.5417 38.0885 11.3073C39.0156 9.07292 40.3281 7.09896 42.0365 5.39063C43.7396 3.67708 45.7083 2.35937 47.9375 1.4375C50.1667 0.510416 52.4896 0.046875 54.901 0.046875V45.651C54.901 47.3906 54.7396 49.1094 54.4115 50.8177C54.0833 52.526 53.599 54.1875 52.9531 55.8021C52.3073 57.4167 51.5208 58.9583 50.5833 60.4219C49.6458 61.8854 48.5781 63.25 47.3802 64.5104C46.1875 65.7708 44.8802 66.9063 43.4688 67.9167C42.0573 68.9271 40.5625 69.7917 38.9844 70.5208C37.4115 71.2448 35.776 71.8125 34.0938 72.2292C32.4063 72.6406 30.6979 72.8906 28.9635 72.9792V54.6667C30.0417 54.5052 31.0573 54.1563 32.0104 53.6302C32.9635 53.1042 33.7917 52.4219 34.5052 51.599C35.2135 50.7708 35.7604 49.8438 36.1354 48.8229C36.5156 47.7969 36.7031 46.7396 36.7031 45.651Z" fill="white"/>
</mask>
<g mask="url(#mask2_420_166)">
<path d="M14.599 70.0105L30.0208 -5.0885L69.2708 3.01046L53.849 78.1094L14.599 70.0105Z" fill="#AC7F9B"/>
</g>
</g>
<mask id="mask3_420_166" style="mask-type:luminance" maskUnits="userSpaceOnUse" x="0" y="17" width="36" height="57">
<path d="M0 17.3333H35.1094V73.3333H0V17.3333Z" fill="white"/>
</mask>
<g mask="url(#mask3_420_166)">
<path fill-rule="evenodd" clip-rule="evenodd" d="M26.25 72.9791C25.3698 72.9322 24.4948 72.8489 23.625 72.7187C22.7552 72.5937 21.8906 72.4218 21.0365 72.2083C20.1823 71.9999 19.3385 71.7447 18.5104 71.453C17.6823 71.1562 16.8646 70.8228 16.0677 70.453C15.2708 70.078 14.4948 69.6718 13.7344 69.2239C12.9792 68.776 12.2396 68.2916 11.5312 67.7708C10.8177 67.2499 10.1354 66.6978 9.47395 66.1145C8.8177 65.5312 8.1875 64.9114 7.58854 64.2655C6.98958 63.6197 6.42187 62.9478 5.89062 62.2447C5.35416 61.5416 4.85937 60.8176 4.39583 60.0676C3.93229 59.3176 3.5052 58.5468 3.11458 57.7551C2.72395 56.9635 2.37499 56.1562 2.06249 55.3333C1.74999 54.5051 1.47916 53.6666 1.24999 52.8176C1.02083 51.9635 0.828119 51.1041 0.682287 50.2343C0.536452 49.3645 0.427078 48.4895 0.364578 47.6093C0.302078 46.7291 0.281245 45.8489 0.302078 44.9687C0.32812 44.0885 0.390621 43.2083 0.494787 42.3333C0.604163 41.4583 0.749995 40.5885 0.942703 39.7239C1.13541 38.8645 1.36458 38.0155 1.63541 37.177C1.91145 36.3385 2.22395 35.5155 2.57291 34.703C2.92708 33.8958 3.3177 33.1093 3.74479 32.3385C4.17187 31.5676 4.63541 30.8176 5.13541 30.0937C5.64062 29.3645 6.17187 28.6666 6.73958 27.9895C7.30729 27.3176 7.90625 26.6718 8.53645 26.0572C9.16666 25.4426 9.82812 24.8593 10.5104 24.3072C11.1979 23.7551 11.9115 23.2343 12.6458 22.7551C13.3854 22.2708 14.1406 21.8228 14.9219 21.4166C15.7031 21.0051 16.5 20.6353 17.3125 20.302C18.1302 19.9687 18.9583 19.677 19.8021 19.427C20.6458 19.1718 21.5 18.9635 22.3646 18.7968C23.224 18.6249 24.099 18.4999 24.974 18.4114C25.849 18.328 26.7292 18.2864 27.6042 18.2864H33.9896V36.526H27.6042C27.0365 36.5312 26.474 36.5833 25.9167 36.6874C25.3594 36.7968 24.8125 36.953 24.2865 37.1614C23.7552 37.3697 23.25 37.6249 22.7708 37.9322C22.2917 38.2343 21.8437 38.578 21.4271 38.9687C21.0104 39.3541 20.6302 39.776 20.2969 40.2343C19.9583 40.6926 19.6667 41.1822 19.4167 41.6926C19.1719 42.2083 18.974 42.7395 18.8281 43.2916C18.6823 43.8385 18.5885 44.401 18.5417 44.9687C18.5 45.5364 18.5104 46.1041 18.5781 46.6666C18.6406 47.2343 18.7552 47.7916 18.9219 48.3333C19.0885 48.8801 19.3073 49.401 19.5729 49.9062C19.8385 50.4114 20.1458 50.8853 20.5 51.328C20.8542 51.776 21.2448 52.1874 21.6771 52.5572C22.1094 52.927 22.5677 53.2551 23.0625 53.5416C23.5521 53.828 24.0677 54.0676 24.6042 54.2551C25.1406 54.4426 25.6875 54.578 26.25 54.6666V72.9791Z" fill="#FC6220"/>
</g>
<mask id="mask4_420_166" style="mask-type:luminance" maskUnits="userSpaceOnUse" x="0" y="17" width="35" height="57">
<path d="M0.145828 17.9426H34.6094V73.3333H0.145828V17.9426Z" fill="white"/>
</mask>
<g mask="url(#mask4_420_166)">
<mask id="mask5_420_166" style="mask-type:luminance" maskUnits="userSpaceOnUse" x="0" y="18" width="34" height="55">
<path fill-rule="evenodd" clip-rule="evenodd" d="M26.25 72.9791C24.4896 72.8905 22.75 72.6353 21.0364 72.2083C19.3229 71.7864 17.6667 71.1978 16.0677 70.453C14.4687 69.7083 12.9583 68.8124 11.5312 67.7708C10.1042 66.7291 8.79165 65.5624 7.58853 64.2655C6.39061 62.9687 5.3229 61.5728 4.39582 60.0676C3.46353 58.5624 2.68749 56.9843 2.06248 55.3333C1.43748 53.677 0.979151 51.9791 0.682277 50.2343C0.385401 48.4947 0.260401 46.7343 0.302068 44.9687C0.348944 43.1978 0.562485 41.453 0.942693 39.7239C1.3229 37.9999 1.86978 36.328 2.5729 34.703C3.28124 33.0833 4.1354 31.5468 5.1354 30.0937C6.14061 28.6353 7.27603 27.2916 8.53644 26.0572C9.80207 24.8228 11.1719 23.7187 12.6458 22.7551C14.125 21.7864 15.6771 20.9687 17.3125 20.302C18.9479 19.6353 20.6302 19.1353 22.3646 18.7968C24.0937 18.453 25.8437 18.2864 27.6042 18.2864H33.9896V36.526H27.6042C26.4583 36.5312 25.3542 36.7395 24.2864 37.1614C23.2187 37.5833 22.2656 38.1822 21.4271 38.9687C20.5833 39.7499 19.9167 40.6562 19.4167 41.6926C18.9219 42.7291 18.6302 43.8228 18.5417 44.9687C18.4583 46.1145 18.5833 47.2343 18.9219 48.3333C19.2604 49.4322 19.7864 50.4322 20.5 51.328C21.2135 52.2291 22.0677 52.9687 23.0625 53.5416C24.0521 54.1197 25.1146 54.4947 26.25 54.6666V72.9791Z" fill="white"/>
</mask>
<g mask="url(#mask5_420_166)">
<path d="M-8.47397 71.5208L1.20832 12.8489L42.776 19.7447L33.0937 78.4114L-8.47397 71.5208Z" fill="#FC6220"/>
</g>
</g>
</svg>
